<?xml version="1.0" encoding="utf-8"?>
<!-- Generator: Adobe Illustrator 22.1.0, SVG Export Plug-In . SVG Version: 6.00 Build 0)  -->
<svg version="1.1" id="Layer_1" xmlns="http://www.w3.org/2000/svg" xmlns:xlink="http://www.w3.org/1999/xlink" x="0px" y="0px"
	 viewBox="0 0 200 200" enable-background="new 0 0 200 200" xml:space="preserve">
<g>
	<g transform="translate(-82)">
		<g>
			<path fill="#8268A8" d="M182,200c-55.1,0-100-44.9-100-100C82,44.9,126.9,0,182,0s100,44.9,100,100C282,155.1,237.1,200,182,200z
				 M182,2c-54,0-98,44-98,98c0,54,44,98,98,98s98-44,98-98C280,46,236,2,182,2z"/>
		</g>
	</g>
</g>
<g>
	<polyline fill="none" stroke="#8266AA" stroke-width="2" stroke-linecap="round" stroke-miterlimit="10" points="154.1,80 
		101.6,106.9 49.2,80 	"/>
	<path fill="none" stroke="#8266AA" stroke-width="2" stroke-linecap="round" stroke-miterlimit="10" d="M154.1,80l-52.5-35L49.2,80
		v63.1c0,1.7,1.4,3.1,3.1,3.1H151c1.7,0,3.1-1.4,3.1-3.1V80z"/>
	<g>
		<path fill="none" stroke="#8266AA" stroke-width="2" stroke-linecap="round" stroke-miterlimit="10" d="M85.8,107.7l13.1,6.7
			c0.9,0.4,1.8,0.7,2.8,0.7c1,0,1.9-0.2,2.8-0.7l13.1-6.7"/>
	</g>
	<polyline fill="none" stroke="#8266AA" stroke-width="2" stroke-linecap="round" stroke-miterlimit="10" points="128.5,93.2 
		128.5,73.1 74.8,73.1 74.8,93.2 	"/>
	
		<line fill="none" stroke="#8266AA" stroke-width="2" stroke-linecap="round" stroke-miterlimit="10" x1="86.4" y1="82.8" x2="116.8" y2="82.8"/>
	
		<line fill="none" stroke="#8266AA" stroke-width="2" stroke-linecap="round" stroke-miterlimit="10" x1="86.4" y1="90.8" x2="116.8" y2="90.8"/>
</g>
</svg>
