<svg id="Layer_1" data-name="Layer 1" xmlns="http://www.w3.org/2000/svg" viewBox="0 0 200 200"><defs><style>.cls-1{fill:#8268a8;}.cls-2{fill:none;stroke:#8266aa;stroke-linecap:round;stroke-miterlimit:10;stroke-width:2px;}</style></defs><title>Icon</title><path class="cls-1" d="M100,200A100,100,0,1,1,200,100,100.11,100.11,0,0,1,100,200ZM100,2a98,98,0,1,0,98,98A98.11,98.11,0,0,0,100,2Z"/><path class="cls-2" d="M135.34,131.76l-13.47-13.48a4.81,4.81,0,0,0-6.79,0l-6.77,6.77a5.14,5.14,0,0,1-6.38.73A80.09,80.09,0,0,1,77,100.91a5.13,5.13,0,0,1,.75-6.35l6.79-6.79a4.81,4.81,0,0,0,0-6.79L71.09,67.5a4.81,4.81,0,0,0-6.79,0l-8,8a6.49,6.49,0,0,0-1.51,6.8A110.66,110.66,0,0,0,120.55,148a6.48,6.48,0,0,0,6.81-1.51l8-8A4.79,4.79,0,0,0,135.34,131.76Z"/><rect class="cls-2" x="138.14" y="54.85" width="9.86" height="9.86"/><rect class="cls-2" x="101.88" y="54.85" width="9.86" height="9.86"/><rect class="cls-2" x="120.01" y="54.85" width="9.87" height="9.86"/><rect class="cls-2" x="138.14" y="72.97" width="9.86" height="9.86"/><rect class="cls-2" x="101.88" y="72.97" width="9.86" height="9.86"/><rect class="cls-2" x="120.01" y="72.97" width="9.87" height="9.86"/><rect class="cls-2" x="138.14" y="91.1" width="9.86" height="9.86"/><rect class="cls-2" x="101.88" y="91.1" width="9.86" height="9.86"/><rect class="cls-2" x="120.01" y="91.1" width="9.87" height="9.86"/></svg>